<svg xmlns="http://www.w3.org/2000/svg" viewBox="0 0 131 129.5"><style>.st0{fill:#f4f4f4}.st1{opacity:.96}.st1,.st2{fill:#2a2f35}.st3{fill:#fff}.st4{fill:#c32426}.st5{fill:#161616}.st6{opacity:.1;fill:#fff}.st7{fill:#e5e5e5}.st8{fill:#18191c}.st9{fill:#121214}.st10{opacity:.57;fill:#18191c}.st11{opacity:.23}.st12{fill:url(#SVGID_11_)}.st13{fill:url(#SVGID_12_)}.st14,.st15{fill:none;stroke:#fff;stroke-miterlimit:10}.st15{stroke:#fc5f45;stroke-width:2}.st16{fill:#fc5f45}.st17,.st18,.st19{fill:none;stroke-miterlimit:10}.st17{stroke-width:6;stroke:#fc5f45}.st18,.st19{opacity:.22;stroke:#fff}.st19{opacity:.1}.st20{opacity:.6}.st21,.st22{fill:none;stroke:#fc5f45;stroke-miterlimit:10}.st22{opacity:.21;stroke:#fff}.st23{opacity:.69}.st24{opacity:.24;fill:none;stroke:#fff;stroke-miterlimit:10}.st25{opacity:.7}.st26{opacity:.48}.st27{fill:url(#SVGID_13_)}.st28{fill:url(#SVGID_16_)}.st29{fill:url(#SVGID_19_)}.st30{fill:url(#SVGID_20_)}.st31{opacity:.39}.st32{opacity:.5}.st33{fill-rule:evenodd;clip-rule:evenodd;fill:#fff}.st34{fill:url(#SVGID_21_)}.st35{fill:url(#SVGID_24_)}.st36{fill:url(#SVGID_29_)}.st37{opacity:.15;fill:none;stroke:#fff;stroke-miterlimit:10}.st38{opacity:.2}.st39{fill:url(#SVGID_34_)}.st40{fill:#ec1e24}.st41{fill:#ff4b33}.st42,.st43{stroke:#fff;stroke-miterlimit:10}.st42{fill:none;stroke-width:2}.st43{opacity:.14;stroke-dasharray:4}.st43,.st44{fill:none}.st45{opacity:.14}.st46,.st47,.st48{fill:none;stroke-miterlimit:10}.st46{stroke-dasharray:4,4;stroke:#fff}.st47{stroke:#c32426}.st48{opacity:.14;stroke:#fff}.st49{opacity:.79}.st50{fill:none;stroke:#191919;stroke-width:10;stroke-miterlimit:10}.st51{opacity:9e-2;fill:#161313}.st52{fill:none;stroke:#e5e5e5;stroke-width:2;stroke-miterlimit:10}.st53{fill:#efb126}.st54,.st55,.st56,.st57{clip-path:url(#SVGID_50_)}.st55{fill:#c32426}.st56{fill:#fff}.st57{opacity:.14;fill:none;stroke:#fff;stroke-miterlimit:10;stroke-dasharray:4}.st58{fill:#e5e5e5}.st58,.st59,.st60,.st61,.st62,.st63{clip-path:url(#SVGID_56_)}.st60{fill:#c32426}.st61{fill:none}.st62{fill:#fff}.st63{opacity:.14;fill:none;stroke:#fff;stroke-miterlimit:10;stroke-dasharray:4}.st64{opacity:.88;fill:#161616}.st65{opacity:.31;fill:none;stroke:#fff;stroke-miterlimit:10}.st66{opacity:.52}.st67{fill:none;stroke:#efb126;stroke-miterlimit:10}.st68{opacity:.88}.st69{fill:none;stroke:#efb126;stroke-width:11;stroke-miterlimit:10}.st70{opacity:.26;fill:#efb126}.st71{fill:#b5851c}.st72{opacity:.46;fill:url(#SVGID_71_)}.st73,.st74{opacity:.46;fill:url(#SVGID_72_)}.st74{fill:url(#SVGID_73_)}.st75,.st76{opacity:.46;fill:url(#SVGID_74_)}.st76{fill:url(#SVGID_75_)}.st77{fill:#5d5d5d}.st78{opacity:.46;fill:url(#SVGID_82_)}.st79,.st80{opacity:.46;fill:url(#SVGID_83_)}.st80{fill:url(#SVGID_84_)}.st81,.st82{opacity:.46;fill:url(#SVGID_85_)}.st82{fill:url(#SVGID_86_)}.st83,.st84{opacity:.46;fill:url(#SVGID_87_)}.st84{fill:url(#SVGID_88_)}.st85,.st86{opacity:.46;fill:url(#SVGID_89_)}.st86{fill:url(#SVGID_90_)}.st87{fill:none;stroke:#c4c4c4;stroke-miterlimit:10}</style><g id="Layer_1"><circle class="st71" cx="65.3" cy="65.4" r="62.2"/><path class="st71" d="M76 77.6H54.9c-1.2 0-1.6.3-1.5 1.5.1 4.6 0 9.2 0 13.9 0 1.1-.3 1.5-1.4 1.4-1-.1-2 0-2.9 0-1.9 0-1.9 0-1.9-1.8V79.2c0-1.2-.3-1.7-1.5-1.5-.7.1-1.4 0-2.1 0V72c.5 0 1 0 1.5-.1.9-.1 2.1.6 2.1-1.3 0-1.8-1.2-1.1-2.1-1.2-.5-.1-1-.1-1.7-.1v-5.1c0-.2.3-.4.6-.6.1-.1.3 0 .5 0 2.6-.1 2.6-.1 2.6-2.7V38.5c0-1.6 0-1.6 1.6-1.6 7.1 0 14.1-.1 21.2.1 3.4.1 6.8.7 9.8 2.5 4.1 2.4 5.8 6.2 6.9 10.7 1.6 6.8-.9 11.9-5.7 16.2-2.6 2.3-5.9 3-9.2 3.1-5.6.1-11.3.1-16.9.1-.9 0-1.4.2-1.4 1.2s.3 1.3 1.3 1.3h20c1.1 0 1.4.3 1.4 1.4-.2 1-.1 2.4-.1 4.1zM53.4 63.2c.2.1.4.2.6.2 5.8 0 11.7.1 17.5-.1 2.6-.1 4.8-1.3 6.3-3.5 2.4-3.6 2.7-7.4 1.4-11.4-1.1-3.2-3.3-5.3-6.8-5.3-5.8-.1-11.7-.1-17.5-.2-1.2 0-1.5.4-1.5 1.5v18.8z"/><circle class="st53" cx="66.3" cy="64.4" r="62.2"/><path class="st3" d="M77 76.6H55.9c-1.2 0-1.6.3-1.5 1.5.1 4.6 0 9.2 0 13.9 0 1.1-.3 1.5-1.4 1.4-1-.1-2 0-2.9 0-1.9 0-1.9 0-1.9-1.8V78.2c0-1.2-.3-1.7-1.5-1.5-.7.1-1.4 0-2.1 0V71c.5 0 1 0 1.5-.1.9-.1 2.1.6 2.1-1.3 0-1.8-1.2-1.1-2.1-1.2-.5-.1-1-.1-1.7-.1v-5.1c0-.2.3-.4.6-.6.1-.1.3 0 .5 0 2.6-.1 2.6-.1 2.6-2.7V37.5c0-1.6 0-1.6 1.6-1.6 7.1 0 14.1-.1 21.2.1 3.4.1 6.8.7 9.8 2.5 4.1 2.4 5.8 6.2 6.9 10.7 1.6 6.8-.9 11.9-5.7 16.2-2.6 2.3-5.9 3-9.2 3.1-5.6.1-11.3.1-16.9.1-.9 0-1.4.2-1.4 1.2s.3 1.3 1.3 1.3h20c1.1 0 1.4.3 1.4 1.4-.2 1-.1 2.4-.1 4.1zM54.4 62.2c.2.1.4.2.6.2 5.8 0 11.7.1 17.5-.1 2.6-.1 4.8-1.3 6.3-3.5 2.4-3.6 2.7-7.4 1.4-11.4-1.1-3.2-3.3-5.3-6.8-5.3-5.8-.1-11.7-.1-17.5-.2-1.2 0-1.5.4-1.5 1.5v18.8z"/><linearGradient id="SVGID_2_" gradientUnits="userSpaceOnUse" x1="6650.297" y1="16.443" x2="6774.699" y2="16.443" gradientTransform="rotate(180 3389.498 40.443)"><stop offset="0" stop-color="#fff" stop-opacity=".5"/><stop offset="1" stop-color="#fff" stop-opacity="0"/></linearGradient><circle cx="66.5" cy="64.4" r="62.2" opacity=".46" fill="url(#SVGID_2_)"/></g></svg>