<svg xmlns="http://www.w3.org/2000/svg" viewBox="0 0 129 129.5"><style>.st0{fill:#f4f4f4}.st1{opacity:.96}.st1,.st2{fill:#2a2f35}.st3{fill:#fff}.st4{fill:#c32426}.st5{fill:#161616}.st6{opacity:.1;fill:#fff}.st7{fill:#e5e5e5}.st8{fill:#18191c}.st9{fill:#121214}.st10{opacity:.57;fill:#18191c}.st11{opacity:.23}.st12{fill:url(#SVGID_11_)}.st13{fill:url(#SVGID_12_)}.st14,.st15{fill:none;stroke:#fff;stroke-miterlimit:10}.st15{stroke:#fc5f45;stroke-width:2}.st16{fill:#fc5f45}.st17,.st18,.st19{fill:none;stroke-miterlimit:10}.st17{stroke-width:6;stroke:#fc5f45}.st18,.st19{opacity:.22;stroke:#fff}.st19{opacity:.1}.st20{opacity:.6}.st21,.st22{fill:none;stroke:#fc5f45;stroke-miterlimit:10}.st22{opacity:.21;stroke:#fff}.st23{opacity:.69}.st24{opacity:.24;fill:none;stroke:#fff;stroke-miterlimit:10}.st25{opacity:.7}.st26{opacity:.48}.st27{fill:url(#SVGID_13_)}.st28{fill:url(#SVGID_16_)}.st29{fill:url(#SVGID_19_)}.st30{fill:url(#SVGID_20_)}.st31{opacity:.39}.st32{opacity:.5}.st33{fill-rule:evenodd;clip-rule:evenodd;fill:#fff}.st34{fill:url(#SVGID_21_)}.st35{fill:url(#SVGID_24_)}.st36{fill:url(#SVGID_29_)}.st37{opacity:.15;fill:none;stroke:#fff;stroke-miterlimit:10}.st38{opacity:.2}.st39{fill:url(#SVGID_34_)}.st40{fill:#ec1e24}.st41{fill:#ff4b33}.st42,.st43{stroke:#fff;stroke-miterlimit:10}.st42{fill:none;stroke-width:2}.st43{opacity:.14;stroke-dasharray:4}.st43,.st44{fill:none}.st45{opacity:.14}.st46,.st47,.st48{fill:none;stroke-miterlimit:10}.st46{stroke-dasharray:4,4;stroke:#fff}.st47{stroke:#c32426}.st48{opacity:.14;stroke:#fff}.st49{opacity:.79}.st50{fill:none;stroke:#191919;stroke-width:10;stroke-miterlimit:10}.st51{opacity:9e-2;fill:#161313}.st52{fill:none;stroke:#e5e5e5;stroke-width:2;stroke-miterlimit:10}.st53{fill:#efb126}.st54,.st55,.st56,.st57{clip-path:url(#SVGID_50_)}.st55{fill:#c32426}.st56{fill:#fff}.st57{opacity:.14;fill:none;stroke:#fff;stroke-miterlimit:10;stroke-dasharray:4}.st58{fill:#e5e5e5}.st58,.st59,.st60,.st61,.st62,.st63{clip-path:url(#SVGID_56_)}.st60{fill:#c32426}.st61{fill:none}.st62{fill:#fff}.st63{opacity:.14;fill:none;stroke:#fff;stroke-miterlimit:10;stroke-dasharray:4}.st64{opacity:.88;fill:#161616}.st65{opacity:.31;fill:none;stroke:#fff;stroke-miterlimit:10}.st66{opacity:.52}.st67{fill:none;stroke:#efb126;stroke-miterlimit:10}.st68{opacity:.88}.st69{fill:none;stroke:#efb126;stroke-width:11;stroke-miterlimit:10}.st70{opacity:.26;fill:#efb126}.st71{fill:#b5851c}.st72{opacity:.46;fill:url(#SVGID_71_)}.st73,.st74{opacity:.46;fill:url(#SVGID_72_)}.st74{fill:url(#SVGID_73_)}.st75,.st76{opacity:.46;fill:url(#SVGID_74_)}.st76{fill:url(#SVGID_75_)}.st77{fill:#5d5d5d}.st78{opacity:.46;fill:url(#SVGID_82_)}.st79,.st80{opacity:.46;fill:url(#SVGID_83_)}.st80{fill:url(#SVGID_84_)}.st81,.st82{opacity:.46;fill:url(#SVGID_85_)}.st82{fill:url(#SVGID_86_)}.st83,.st84{opacity:.46;fill:url(#SVGID_87_)}.st84{fill:url(#SVGID_88_)}.st85,.st86{opacity:.46;fill:url(#SVGID_89_)}.st86{fill:url(#SVGID_90_)}.st87{fill:none;stroke:#c4c4c4;stroke-miterlimit:10}</style><g id="Layer_1"><circle class="st71" cx="64.5" cy="65.4" r="62.2"/><path class="st71" d="M29.2 43.9c2.7.9 5.3 1.9 8 2.8 2 .6 3.9.2 5.8-.8 3.4-1.8 6.8-3.6 10.3-5.1 3-1.2 5.9-.4 8.6 1.9-.6.3-1 .6-1.5.9-2.5 1.5-5.1 2.9-7.6 4.5-2.8 1.8-4 4.7-3.3 7.7.6 2.9 3 5.1 6.1 5.3 1.3.1 2.7-.3 4-.8 2.3-.9 4.5-2 6.8-3.1 2.1-.9 3.8-.7 5.4 1 4.3 4.3 8.7 8.6 13 12.9 1.4 1.4 1.5 3.3.3 4.6-1.2 1.2-3.1 1.2-4.6-.2-1.3-1.2-2.5-2.5-3.8-3.8-.4-.4-.8-.6-1.3-1-.1.1-.2.2-.3.2.2.4.4.9.7 1.3 1.2 1.4 2.5 2.6 3.8 4 1.1 1.2 1.3 2.7.6 3.9-.7 1.2-1.9 1.8-3.3 1.4-.7-.2-1.4-.7-1.9-1.2-1.3-1.2-2.6-2.6-3.9-3.9-.5-.5-1.2-1-1.7-1.5l-.3.3c.3.5.5 1 .8 1.4 1.2 1.3 2.4 2.5 3.6 3.8 1.5 1.6 1.6 3.4.3 4.7-1.3 1.3-3.1 1.1-4.6-.4-1.4-1.4-2.7-2.8-4.1-4.1-.4-.4-.9-.7-1.3-1-.1.1-.2.2-.4.3.3.4.5.9.8 1.3 1.1 1.2 2.2 2.2 3.2 3.4 1.1 1.3 1.2 2.6.4 3.8-.7 1.2-2 1.6-3.3 1.3-1.5-.4-2.9-2.2-2.9-3.8-.1-2.9-1.4-4.9-4-6.3-.5-.3-1.1-.8-1.3-1.4-.7-1.6-1.8-2.8-3.4-3.6-.5-.3-1-.8-1.3-1.3-.7-1.6-1.8-2.7-3.4-3.5-.4-.2-.9-.6-1.1-1.1-1.2-2.9-3.5-4.3-6.5-4.3-3.1-.1-5.5 1.3-7.1 4-.2.4-.4.7-.6 1.2-1.3-.4-2.5-.7-3.8-1.1.1-8.3.1-16.4.1-24.6z"/><path class="st71" d="M99.8 67.6c-2.3.4-4.5.8-6.8 1.2-2 .4-3.8-.2-5.3-1.7-4.5-4.5-9.1-9-13.7-13.6-2-1.9-3.6-2.3-6.1-1-3.1 1.5-6.1 3.1-9.2 4.7-1.5.8-3 1-4.4.1-2.6-1.5-2.6-5.2 0-6.8 5.8-3.4 11.7-6.6 17.6-9.9 1.9-1.1 3.8-.9 5.5.5 2.6 2.1 5.1 4.2 7.6 6.3 1.2 1 2.5 1.4 4.1 1.1 3.5-.8 7.1-1.5 10.6-2.3.1 7.2.1 14.3.1 21.4zm-59 8.2c-.8.1-1.3.2-1.8.3-2 .4-3.6-.7-3.7-2.8-.1-2 1.7-4.7 3.6-5.4 2.8-1 5.3.7 5.2 3.7v.4c1.3.5 2.8.7 3.6 1.5.8.8.9 2.2 1.4 3.5 3.5.5 4.5 1.6 4.1 5.2h.8c3-.3 5.1 2.4 3.9 5.2-.9 2.3-4 3.8-6.4 3.2-1.7-.4-2.5-1.9-2-3.6.2-.6.4-1.2.7-1.8-5.1 1.2-6.3-.8-4.9-4.7-1.5.1-3 1.1-4.4-.3-1.4-1.3-.8-2.8-.1-4.4z"/><circle class="st53" cx="65.5" cy="64.4" r="62.2"/><path class="st3" d="M30.2 42.9c2.7.9 5.3 1.9 8 2.8 2 .6 3.9.2 5.8-.8 3.4-1.8 6.8-3.6 10.3-5.1 3-1.2 5.9-.4 8.6 1.9-.6.3-1 .6-1.5.9-2.5 1.5-5.1 2.9-7.6 4.5-2.8 1.8-4 4.7-3.3 7.7.6 2.9 3 5.1 6.1 5.3 1.3.1 2.7-.3 4-.8 2.3-.9 4.5-2 6.8-3.1 2.1-.9 3.8-.7 5.4 1 4.3 4.3 8.7 8.6 13 12.9 1.4 1.4 1.5 3.3.3 4.6-1.2 1.2-3.1 1.2-4.6-.2-1.3-1.2-2.5-2.5-3.8-3.8-.4-.4-.8-.6-1.3-1-.1.1-.2.2-.3.2.2.4.4.9.7 1.3 1.2 1.4 2.5 2.6 3.8 4 1.1 1.2 1.3 2.7.6 3.9-.7 1.2-1.9 1.8-3.3 1.4-.7-.2-1.4-.7-1.9-1.2-1.3-1.2-2.6-2.6-3.9-3.9-.5-.5-1.2-1-1.7-1.5l-.3.3c.3.5.5 1 .8 1.4 1.2 1.3 2.4 2.5 3.6 3.8 1.5 1.6 1.6 3.4.3 4.7-1.3 1.3-3.1 1.1-4.6-.4-1.4-1.4-2.7-2.8-4.1-4.1-.4-.4-.9-.7-1.3-1-.1.1-.2.2-.4.3.3.4.5.9.8 1.3 1.1 1.2 2.2 2.2 3.2 3.4 1.1 1.3 1.2 2.6.4 3.8-.7 1.2-2 1.6-3.3 1.3-1.5-.4-2.9-2.2-2.9-3.8-.1-2.9-1.4-4.9-4-6.3-.5-.3-1.1-.8-1.3-1.4-.7-1.6-1.8-2.8-3.4-3.6-.5-.3-1-.8-1.3-1.3-.7-1.6-1.8-2.7-3.4-3.5-.4-.2-.9-.6-1.1-1.1-1.2-2.9-3.5-4.3-6.5-4.3-3.1-.1-5.5 1.3-7.1 4-.2.4-.4.7-.6 1.2-1.3-.4-2.5-.7-3.8-1.1.1-8.3.1-16.4.1-24.6z"/><path class="st3" d="M100.8 66.6c-2.3.4-4.5.8-6.8 1.2-2 .4-3.8-.2-5.3-1.7-4.5-4.5-9.1-9-13.7-13.6-2-1.9-3.6-2.3-6.1-1-3.1 1.5-6.1 3.1-9.2 4.7-1.5.8-3 1-4.4.1-2.6-1.5-2.6-5.2 0-6.8 5.8-3.4 11.7-6.6 17.6-9.9 1.9-1.1 3.8-.9 5.5.5 2.6 2.1 5.1 4.2 7.6 6.3 1.2 1 2.5 1.4 4.1 1.1 3.5-.8 7.1-1.5 10.6-2.3.1 7.2.1 14.3.1 21.4zm-59 8.2c-.8.1-1.3.2-1.8.3-2 .4-3.6-.7-3.7-2.8-.1-2 1.7-4.7 3.6-5.4 2.8-1 5.3.7 5.2 3.7v.4c1.3.5 2.8.7 3.6 1.5.8.8.9 2.2 1.4 3.5 3.5.5 4.5 1.6 4.1 5.2h.8c3-.3 5.1 2.4 3.9 5.2-.9 2.3-4 3.8-6.4 3.2-1.7-.4-2.5-1.9-2-3.6.2-.6.4-1.2.7-1.8-5.1 1.2-6.3-.8-4.9-4.7-1.5.1-3 1.1-4.4-.3-1.4-1.3-.8-2.8-.1-4.4z"/><linearGradient id="SVGID_2_" gradientUnits="userSpaceOnUse" x1="8567.297" y1="16.443" x2="8691.699" y2="16.443" gradientTransform="rotate(180 4347.498 40.443)"><stop offset="0" stop-color="#fff" stop-opacity=".5"/><stop offset="1" stop-color="#fff" stop-opacity="0"/></linearGradient><circle cx="65.5" cy="64.4" r="62.2" opacity=".46" fill="url(#SVGID_2_)"/></g></svg>